<svg xmlns="http://www.w3.org/2000/svg" xmlns:xlink="http://www.w3.org/1999/xlink" width="444" height="260" viewBox="0 0 444 260" font-family="Segoe UI, Helvetica, Arial, sans-serif">
<defs>
<linearGradient id="bgk5" x1="0" y1="0" x2="1" y2="1"><stop offset="0" stop-color="#0B1026"/><stop offset="0.65" stop-color="#101B47"/><stop offset="1" stop-color="#0B1026"/></linearGradient>
<linearGradient id="ack5" x1="0" y1="0" x2="1" y2="0"><stop offset="0" stop-color="#22D3EE"/><stop offset="1" stop-color="#8B5CF6"/></linearGradient>
<linearGradient id="shk5" x1="0" y1="0" x2="1" y2="0"><stop offset="0" stop-color="#22D3EE" stop-opacity="0"/><stop offset="0.5" stop-color="#22D3EE" stop-opacity="0.09"/><stop offset="1" stop-color="#22D3EE" stop-opacity="0"/></linearGradient>
<clipPath id="cpk5"><rect width="444" height="260" rx="18"/></clipPath>
</defs>
<g clip-path="url(#cpk5)">
<rect width="444" height="260" fill="url(#bgk5)"/>
<line x1="2" y1="85" x2="81" y2="166" stroke="#22D3EE" stroke-opacity="0.11"/><line x1="2" y1="85" x2="50" y2="189" stroke="#22D3EE" stroke-opacity="0.11"/><line x1="2" y1="85" x2="41" y2="210" stroke="#22D3EE" stroke-opacity="0.11"/><line x1="2" y1="85" x2="79" y2="150" stroke="#22D3EE" stroke-opacity="0.11"/><line x1="2" y1="85" x2="11" y2="158" stroke="#22D3EE" stroke-opacity="0.11"/><line x1="153" y1="108" x2="178" y2="237" stroke="#22D3EE" stroke-opacity="0.11"/><line x1="153" y1="108" x2="81" y2="166" stroke="#22D3EE" stroke-opacity="0.11"/><line x1="153" y1="108" x2="50" y2="189" stroke="#22D3EE" stroke-opacity="0.11"/><line x1="153" y1="108" x2="205" y2="96" stroke="#22D3EE" stroke-opacity="0.11"/><line x1="153" y1="108" x2="205" y2="73" stroke="#22D3EE" stroke-opacity="0.11"/><line x1="153" y1="108" x2="227" y2="183" stroke="#22D3EE" stroke-opacity="0.11"/><line x1="153" y1="108" x2="79" y2="150" stroke="#22D3EE" stroke-opacity="0.11"/><line x1="178" y1="237" x2="81" y2="166" stroke="#22D3EE" stroke-opacity="0.11"/><line x1="178" y1="237" x2="50" y2="189" stroke="#22D3EE" stroke-opacity="0.11"/><line x1="178" y1="237" x2="205" y2="96" stroke="#22D3EE" stroke-opacity="0.11"/><line x1="178" y1="237" x2="41" y2="210" stroke="#22D3EE" stroke-opacity="0.11"/><line x1="178" y1="237" x2="227" y2="183" stroke="#22D3EE" stroke-opacity="0.11"/><line x1="178" y1="237" x2="79" y2="150" stroke="#22D3EE" stroke-opacity="0.11"/><line x1="178" y1="237" x2="275" y2="257" stroke="#22D3EE" stroke-opacity="0.11"/><line x1="178" y1="237" x2="293" y2="224" stroke="#22D3EE" stroke-opacity="0.11"/><line x1="81" y1="166" x2="50" y2="189" stroke="#22D3EE" stroke-opacity="0.11"/><line x1="81" y1="166" x2="205" y2="96" stroke="#22D3EE" stroke-opacity="0.11"/><line x1="81" y1="166" x2="41" y2="210" stroke="#22D3EE" stroke-opacity="0.11"/><line x1="81" y1="166" x2="227" y2="183" stroke="#22D3EE" stroke-opacity="0.11"/><line x1="81" y1="166" x2="79" y2="150" stroke="#22D3EE" stroke-opacity="0.11"/><line x1="81" y1="166" x2="11" y2="158" stroke="#22D3EE" stroke-opacity="0.11"/><line x1="50" y1="189" x2="41" y2="210" stroke="#22D3EE" stroke-opacity="0.11"/><line x1="50" y1="189" x2="79" y2="150" stroke="#22D3EE" stroke-opacity="0.11"/><line x1="50" y1="189" x2="11" y2="158" stroke="#22D3EE" stroke-opacity="0.11"/><line x1="205" y1="96" x2="205" y2="73" stroke="#22D3EE" stroke-opacity="0.11"/><line x1="205" y1="96" x2="227" y2="183" stroke="#22D3EE" stroke-opacity="0.11"/><line x1="205" y1="96" x2="79" y2="150" stroke="#22D3EE" stroke-opacity="0.11"/><line x1="205" y1="73" x2="227" y2="183" stroke="#22D3EE" stroke-opacity="0.11"/><line x1="205" y1="73" x2="79" y2="150" stroke="#22D3EE" stroke-opacity="0.11"/><line x1="41" y1="210" x2="79" y2="150" stroke="#22D3EE" stroke-opacity="0.11"/><line x1="41" y1="210" x2="11" y2="158" stroke="#22D3EE" stroke-opacity="0.11"/><line x1="227" y1="183" x2="275" y2="257" stroke="#22D3EE" stroke-opacity="0.11"/><line x1="227" y1="183" x2="293" y2="224" stroke="#22D3EE" stroke-opacity="0.11"/><line x1="79" y1="150" x2="11" y2="158" stroke="#22D3EE" stroke-opacity="0.11"/><line x1="275" y1="257" x2="293" y2="224" stroke="#22D3EE" stroke-opacity="0.11"/><circle cx="2" cy="85" r="2.5" fill="#22D3EE" fill-opacity="0.45"/><circle cx="153" cy="108" r="2.5" fill="#8B5CF6" fill-opacity="0.45"/><circle cx="178" cy="237" r="2.5" fill="#8B5CF6" fill-opacity="0.45"/><circle cx="81" cy="166" r="2.5" fill="#8B5CF6" fill-opacity="0.45"/><circle cx="50" cy="189" r="2.5" fill="#22D3EE" fill-opacity="0.45"/><circle cx="205" cy="96" r="2.5" fill="#22D3EE" fill-opacity="0.45"/><circle cx="205" cy="73" r="2.5" fill="#22D3EE" fill-opacity="0.45"/><circle cx="41" cy="210" r="2.5" fill="#8B5CF6" fill-opacity="0.45"/><circle cx="227" cy="183" r="2.5" fill="#8B5CF6" fill-opacity="0.45"/><circle cx="79" cy="150" r="2.5" fill="#22D3EE" fill-opacity="0.45"/><circle cx="275" cy="257" r="2.5" fill="#22D3EE" fill-opacity="0.45"/><circle cx="394" cy="66" r="2.5" fill="#8B5CF6" fill-opacity="0.45"/><circle cx="293" cy="224" r="2.5" fill="#8B5CF6" fill-opacity="0.45"/><circle cx="11" cy="158" r="2.5" fill="#22D3EE" fill-opacity="0.45"/>
<rect x="-444" width="444" height="260" fill="url(#shk5)"><animate attributeName="x" from="-444" to="444" dur="10s" repeatCount="indefinite"/></rect>
<text x="28" y="52" font-size="26" font-family="Segoe UI Emoji, Apple Color Emoji, Noto Color Emoji">🔌</text><text x="72" y="52" font-size="21" font-weight="700" fill="url(#ack5)">Embedded, Signals &amp; Biomedical</text><rect x="28" y="66" width="60" height="3" rx="1.5" fill="url(#ack5)"/><text x="28" y="100" font-size="15" fill="#22D3EE">▸</text><text x="48" y="100" font-size="15" fill="#E6EDF3">Embedded systems and IoT with Raspberry Pi and</text><text x="48" y="122" font-size="15" fill="#E6EDF3">microcontrollers, ROS2, FPGA/Verilog.</text><text x="28" y="152" font-size="15" fill="#22D3EE">▸</text><text x="48" y="152" font-size="15" fill="#E6EDF3">Signal processing; wearables for atrial</text><text x="48" y="174" font-size="15" fill="#E6EDF3">fibrillation detection and stress quantification.</text><text x="28" y="204" font-size="15" fill="#22D3EE">▸</text><text x="48" y="204" font-size="15" fill="#E6EDF3">Electromagnetic and multiphysics simulation</text><text x="48" y="226" font-size="15" fill="#E6EDF3">(FEKO/HFSS, COMSOL).</text>
</g>
<rect x="1" y="1" width="442" height="258" rx="18" fill="none" stroke="url(#ack5)" stroke-opacity="0.5" stroke-width="1.5"/>
</svg>