<svg xmlns="http://www.w3.org/2000/svg" xmlns:xlink="http://www.w3.org/1999/xlink" width="444" height="378" viewBox="0 0 444 378" font-family="Segoe UI, Helvetica, Arial, sans-serif">
<defs>
<linearGradient id="bgk0" x1="0" y1="0" x2="1" y2="1"><stop offset="0" stop-color="#0B1026"/><stop offset="0.65" stop-color="#101B47"/><stop offset="1" stop-color="#0B1026"/></linearGradient>
<linearGradient id="ack0" x1="0" y1="0" x2="1" y2="0"><stop offset="0" stop-color="#22D3EE"/><stop offset="1" stop-color="#8B5CF6"/></linearGradient>
<linearGradient id="shk0" x1="0" y1="0" x2="1" y2="0"><stop offset="0" stop-color="#22D3EE" stop-opacity="0"/><stop offset="0.5" stop-color="#22D3EE" stop-opacity="0.09"/><stop offset="1" stop-color="#22D3EE" stop-opacity="0"/></linearGradient>
<clipPath id="cpk0"><rect width="444" height="378" rx="18"/></clipPath>
</defs>
<g clip-path="url(#cpk0)">
<rect width="444" height="378" fill="url(#bgk0)"/>
<line x1="358" y1="55" x2="239" y2="125" stroke="#22D3EE" stroke-opacity="0.11"/><line x1="358" y1="55" x2="241" y2="110" stroke="#22D3EE" stroke-opacity="0.11"/><line x1="358" y1="55" x2="264" y2="108" stroke="#22D3EE" stroke-opacity="0.11"/><line x1="358" y1="55" x2="344" y2="122" stroke="#22D3EE" stroke-opacity="0.11"/><line x1="358" y1="55" x2="321" y2="42" stroke="#22D3EE" stroke-opacity="0.11"/><line x1="163" y1="128" x2="239" y2="125" stroke="#22D3EE" stroke-opacity="0.11"/><line x1="163" y1="128" x2="241" y2="110" stroke="#22D3EE" stroke-opacity="0.11"/><line x1="163" y1="128" x2="264" y2="108" stroke="#22D3EE" stroke-opacity="0.11"/><line x1="163" y1="128" x2="132" y2="160" stroke="#22D3EE" stroke-opacity="0.11"/><line x1="163" y1="128" x2="136" y2="253" stroke="#22D3EE" stroke-opacity="0.11"/><line x1="163" y1="128" x2="85" y2="29" stroke="#22D3EE" stroke-opacity="0.11"/><line x1="163" y1="128" x2="117" y2="122" stroke="#22D3EE" stroke-opacity="0.11"/><line x1="163" y1="128" x2="101" y2="199" stroke="#22D3EE" stroke-opacity="0.11"/><line x1="297" y1="225" x2="239" y2="125" stroke="#22D3EE" stroke-opacity="0.11"/><line x1="297" y1="225" x2="241" y2="110" stroke="#22D3EE" stroke-opacity="0.11"/><line x1="297" y1="225" x2="264" y2="275" stroke="#22D3EE" stroke-opacity="0.11"/><line x1="297" y1="225" x2="264" y2="108" stroke="#22D3EE" stroke-opacity="0.11"/><line x1="297" y1="225" x2="344" y2="122" stroke="#22D3EE" stroke-opacity="0.11"/><line x1="239" y1="125" x2="241" y2="110" stroke="#22D3EE" stroke-opacity="0.11"/><line x1="239" y1="125" x2="264" y2="108" stroke="#22D3EE" stroke-opacity="0.11"/><line x1="239" y1="125" x2="132" y2="160" stroke="#22D3EE" stroke-opacity="0.11"/><line x1="239" y1="125" x2="117" y2="122" stroke="#22D3EE" stroke-opacity="0.11"/><line x1="239" y1="125" x2="344" y2="122" stroke="#22D3EE" stroke-opacity="0.11"/><line x1="239" y1="125" x2="321" y2="42" stroke="#22D3EE" stroke-opacity="0.11"/><line x1="43" y1="309" x2="136" y2="253" stroke="#22D3EE" stroke-opacity="0.11"/><line x1="43" y1="309" x2="5" y2="186" stroke="#22D3EE" stroke-opacity="0.11"/><line x1="43" y1="309" x2="101" y2="199" stroke="#22D3EE" stroke-opacity="0.11"/><line x1="43" y1="309" x2="17" y2="200" stroke="#22D3EE" stroke-opacity="0.11"/><line x1="43" y1="309" x2="13" y2="365" stroke="#22D3EE" stroke-opacity="0.11"/><line x1="43" y1="309" x2="74" y2="287" stroke="#22D3EE" stroke-opacity="0.11"/><line x1="241" y1="110" x2="264" y2="108" stroke="#22D3EE" stroke-opacity="0.11"/><line x1="241" y1="110" x2="132" y2="160" stroke="#22D3EE" stroke-opacity="0.11"/><line x1="241" y1="110" x2="117" y2="122" stroke="#22D3EE" stroke-opacity="0.11"/><line x1="241" y1="110" x2="344" y2="122" stroke="#22D3EE" stroke-opacity="0.11"/><line x1="241" y1="110" x2="321" y2="42" stroke="#22D3EE" stroke-opacity="0.11"/><line x1="264" y1="275" x2="136" y2="253" stroke="#22D3EE" stroke-opacity="0.11"/><line x1="264" y1="108" x2="132" y2="160" stroke="#22D3EE" stroke-opacity="0.11"/><line x1="264" y1="108" x2="117" y2="122" stroke="#22D3EE" stroke-opacity="0.11"/><line x1="264" y1="108" x2="344" y2="122" stroke="#22D3EE" stroke-opacity="0.11"/><line x1="264" y1="108" x2="321" y2="42" stroke="#22D3EE" stroke-opacity="0.11"/><line x1="132" y1="160" x2="136" y2="253" stroke="#22D3EE" stroke-opacity="0.11"/><line x1="132" y1="160" x2="85" y2="29" stroke="#22D3EE" stroke-opacity="0.11"/><line x1="132" y1="160" x2="117" y2="122" stroke="#22D3EE" stroke-opacity="0.11"/><line x1="132" y1="160" x2="5" y2="186" stroke="#22D3EE" stroke-opacity="0.11"/><line x1="132" y1="160" x2="101" y2="199" stroke="#22D3EE" stroke-opacity="0.11"/><line x1="132" y1="160" x2="17" y2="200" stroke="#22D3EE" stroke-opacity="0.11"/><line x1="132" y1="160" x2="74" y2="287" stroke="#22D3EE" stroke-opacity="0.11"/><line x1="136" y1="253" x2="117" y2="122" stroke="#22D3EE" stroke-opacity="0.11"/><line x1="136" y1="253" x2="5" y2="186" stroke="#22D3EE" stroke-opacity="0.11"/><line x1="136" y1="253" x2="101" y2="199" stroke="#22D3EE" stroke-opacity="0.11"/><line x1="136" y1="253" x2="17" y2="200" stroke="#22D3EE" stroke-opacity="0.11"/><line x1="136" y1="253" x2="74" y2="287" stroke="#22D3EE" stroke-opacity="0.11"/><line x1="85" y1="29" x2="117" y2="122" stroke="#22D3EE" stroke-opacity="0.11"/><line x1="117" y1="122" x2="5" y2="186" stroke="#22D3EE" stroke-opacity="0.11"/><line x1="117" y1="122" x2="101" y2="199" stroke="#22D3EE" stroke-opacity="0.11"/><line x1="117" y1="122" x2="17" y2="200" stroke="#22D3EE" stroke-opacity="0.11"/><line x1="5" y1="186" x2="101" y2="199" stroke="#22D3EE" stroke-opacity="0.11"/><line x1="5" y1="186" x2="17" y2="200" stroke="#22D3EE" stroke-opacity="0.11"/><line x1="5" y1="186" x2="74" y2="287" stroke="#22D3EE" stroke-opacity="0.11"/><line x1="101" y1="199" x2="17" y2="200" stroke="#22D3EE" stroke-opacity="0.11"/><line x1="101" y1="199" x2="74" y2="287" stroke="#22D3EE" stroke-opacity="0.11"/><line x1="344" y1="122" x2="321" y2="42" stroke="#22D3EE" stroke-opacity="0.11"/><line x1="17" y1="200" x2="74" y2="287" stroke="#22D3EE" stroke-opacity="0.11"/><line x1="13" y1="365" x2="74" y2="287" stroke="#22D3EE" stroke-opacity="0.11"/><circle cx="358" cy="55" r="2.5" fill="#22D3EE" fill-opacity="0.45"/><circle cx="163" cy="128" r="2.5" fill="#22D3EE" fill-opacity="0.45"/><circle cx="297" cy="225" r="2.5" fill="#22D3EE" fill-opacity="0.45"/><circle cx="239" cy="125" r="2.5" fill="#22D3EE" fill-opacity="0.45"/><circle cx="43" cy="309" r="2.5" fill="#8B5CF6" fill-opacity="0.45"/><circle cx="241" cy="110" r="2.5" fill="#22D3EE" fill-opacity="0.45"/><circle cx="264" cy="275" r="2.5" fill="#8B5CF6" fill-opacity="0.45"/><circle cx="264" cy="108" r="2.5" fill="#8B5CF6" fill-opacity="0.45"/><circle cx="132" cy="160" r="2.5" fill="#22D3EE" fill-opacity="0.45"/><circle cx="136" cy="253" r="2.5" fill="#8B5CF6" fill-opacity="0.45"/><circle cx="85" cy="29" r="2.5" fill="#8B5CF6" fill-opacity="0.45"/><circle cx="117" cy="122" r="2.5" fill="#8B5CF6" fill-opacity="0.45"/><circle cx="5" cy="186" r="2.5" fill="#8B5CF6" fill-opacity="0.45"/><circle cx="101" cy="199" r="2.5" fill="#22D3EE" fill-opacity="0.45"/><circle cx="344" cy="122" r="2.5" fill="#22D3EE" fill-opacity="0.45"/><circle cx="17" cy="200" r="2.5" fill="#8B5CF6" fill-opacity="0.45"/><circle cx="13" cy="365" r="2.5" fill="#8B5CF6" fill-opacity="0.45"/><circle cx="74" cy="287" r="2.5" fill="#8B5CF6" fill-opacity="0.45"/><circle cx="321" cy="42" r="2.5" fill="#22D3EE" fill-opacity="0.45"/>
<rect x="-444" width="444" height="378" fill="url(#shk0)"><animate attributeName="x" from="-444" to="444" dur="10s" repeatCount="indefinite"/></rect>
<text x="28" y="52" font-size="26" font-family="Segoe UI Emoji, Apple Color Emoji, Noto Color Emoji">🤖</text><text x="72" y="52" font-size="21" font-weight="700" fill="url(#ack0)">AI Agents &amp; Automation</text><rect x="28" y="66" width="60" height="3" rx="1.5" fill="url(#ack0)"/><text x="28" y="100" font-size="15" fill="#22D3EE">▸</text><text x="48" y="100" font-size="15" fill="#E6EDF3">WhatsApp agent built 100% in n8n, orchestrating</text><text x="48" y="122" font-size="15" fill="#E6EDF3">Gemini and local Ollama models and booking</text><text x="48" y="144" font-size="15" fill="#E6EDF3">appointments in Google Calendar during the chat.</text><text x="48" y="166" font-size="15" fill="#E6EDF3">Live for a dental practice, 10+ patients a day.</text><text x="28" y="196" font-size="15" fill="#22D3EE">▸</text><text x="48" y="196" font-size="15" fill="#E6EDF3">RAG agent (LangGraph + ChromaDB) that turns a</text><text x="48" y="218" font-size="15" fill="#E6EDF3">large repo's documentation into a vector DB and</text><text x="48" y="240" font-size="15" fill="#E6EDF3">answers coding questions.</text><text x="28" y="270" font-size="15" fill="#22D3EE">▸</text><text x="48" y="270" font-size="15" fill="#E6EDF3">News-monitoring agent (OpenClaw) that generates</text><text x="48" y="292" font-size="15" fill="#E6EDF3">periodic PDF reports.</text><text x="28" y="322" font-size="15" fill="#22D3EE">▸</text><text x="48" y="322" font-size="15" fill="#E6EDF3">LangChain, LangGraph, CrewAI, AutoGen, MCP and</text><text x="48" y="344" font-size="15" fill="#E6EDF3">local inference with Ollama.</text>
</g>
<rect x="1" y="1" width="442" height="376" rx="18" fill="none" stroke="url(#ack0)" stroke-opacity="0.5" stroke-width="1.5"/>
</svg>