<svg xmlns="http://www.w3.org/2000/svg" xmlns:xlink="http://www.w3.org/1999/xlink" width="444" height="356" viewBox="0 0 444 356" font-family="Segoe UI, Helvetica, Arial, sans-serif">
<defs>
<linearGradient id="bgk3" x1="0" y1="0" x2="1" y2="1"><stop offset="0" stop-color="#0B1026"/><stop offset="0.65" stop-color="#101B47"/><stop offset="1" stop-color="#0B1026"/></linearGradient>
<linearGradient id="ack3" x1="0" y1="0" x2="1" y2="0"><stop offset="0" stop-color="#22D3EE"/><stop offset="1" stop-color="#8B5CF6"/></linearGradient>
<linearGradient id="shk3" x1="0" y1="0" x2="1" y2="0"><stop offset="0" stop-color="#22D3EE" stop-opacity="0"/><stop offset="0.5" stop-color="#22D3EE" stop-opacity="0.09"/><stop offset="1" stop-color="#22D3EE" stop-opacity="0"/></linearGradient>
<clipPath id="cpk3"><rect width="444" height="356" rx="18"/></clipPath>
</defs>
<g clip-path="url(#cpk3)">
<rect width="444" height="356" fill="url(#bgk3)"/>
<line x1="411" y1="233" x2="335" y2="351" stroke="#22D3EE" stroke-opacity="0.11"/><line x1="411" y1="233" x2="368" y2="147" stroke="#22D3EE" stroke-opacity="0.11"/><line x1="411" y1="233" x2="288" y2="222" stroke="#22D3EE" stroke-opacity="0.11"/><line x1="411" y1="233" x2="313" y2="133" stroke="#22D3EE" stroke-opacity="0.11"/><line x1="335" y1="351" x2="226" y2="279" stroke="#22D3EE" stroke-opacity="0.11"/><line x1="335" y1="351" x2="225" y2="272" stroke="#22D3EE" stroke-opacity="0.11"/><line x1="335" y1="351" x2="278" y2="353" stroke="#22D3EE" stroke-opacity="0.11"/><line x1="335" y1="351" x2="288" y2="222" stroke="#22D3EE" stroke-opacity="0.11"/><line x1="226" y1="279" x2="225" y2="272" stroke="#22D3EE" stroke-opacity="0.11"/><line x1="226" y1="279" x2="278" y2="353" stroke="#22D3EE" stroke-opacity="0.11"/><line x1="226" y1="279" x2="288" y2="222" stroke="#22D3EE" stroke-opacity="0.11"/><line x1="226" y1="279" x2="116" y2="334" stroke="#22D3EE" stroke-opacity="0.11"/><line x1="226" y1="279" x2="88" y2="278" stroke="#22D3EE" stroke-opacity="0.11"/><line x1="226" y1="279" x2="103" y2="320" stroke="#22D3EE" stroke-opacity="0.11"/><line x1="56" y1="326" x2="116" y2="334" stroke="#22D3EE" stroke-opacity="0.11"/><line x1="56" y1="326" x2="88" y2="278" stroke="#22D3EE" stroke-opacity="0.11"/><line x1="56" y1="326" x2="103" y2="320" stroke="#22D3EE" stroke-opacity="0.11"/><line x1="225" y1="272" x2="278" y2="353" stroke="#22D3EE" stroke-opacity="0.11"/><line x1="225" y1="272" x2="288" y2="222" stroke="#22D3EE" stroke-opacity="0.11"/><line x1="225" y1="272" x2="116" y2="334" stroke="#22D3EE" stroke-opacity="0.11"/><line x1="225" y1="272" x2="88" y2="278" stroke="#22D3EE" stroke-opacity="0.11"/><line x1="225" y1="272" x2="103" y2="320" stroke="#22D3EE" stroke-opacity="0.11"/><line x1="130" y1="120" x2="140" y2="21" stroke="#22D3EE" stroke-opacity="0.11"/><line x1="130" y1="120" x2="0" y2="112" stroke="#22D3EE" stroke-opacity="0.11"/><line x1="130" y1="120" x2="72" y2="34" stroke="#22D3EE" stroke-opacity="0.11"/><line x1="140" y1="21" x2="72" y2="34" stroke="#22D3EE" stroke-opacity="0.11"/><line x1="308" y1="71" x2="368" y2="147" stroke="#22D3EE" stroke-opacity="0.11"/><line x1="308" y1="71" x2="372" y2="29" stroke="#22D3EE" stroke-opacity="0.11"/><line x1="308" y1="71" x2="313" y2="133" stroke="#22D3EE" stroke-opacity="0.11"/><line x1="278" y1="353" x2="288" y2="222" stroke="#22D3EE" stroke-opacity="0.11"/><line x1="368" y1="147" x2="288" y2="222" stroke="#22D3EE" stroke-opacity="0.11"/><line x1="368" y1="147" x2="372" y2="29" stroke="#22D3EE" stroke-opacity="0.11"/><line x1="368" y1="147" x2="313" y2="133" stroke="#22D3EE" stroke-opacity="0.11"/><line x1="288" y1="222" x2="313" y2="133" stroke="#22D3EE" stroke-opacity="0.11"/><line x1="372" y1="29" x2="313" y2="133" stroke="#22D3EE" stroke-opacity="0.11"/><line x1="0" y1="112" x2="72" y2="34" stroke="#22D3EE" stroke-opacity="0.11"/><line x1="116" y1="334" x2="88" y2="278" stroke="#22D3EE" stroke-opacity="0.11"/><line x1="116" y1="334" x2="103" y2="320" stroke="#22D3EE" stroke-opacity="0.11"/><line x1="88" y1="278" x2="103" y2="320" stroke="#22D3EE" stroke-opacity="0.11"/><circle cx="411" cy="233" r="2.5" fill="#22D3EE" fill-opacity="0.45"/><circle cx="335" cy="351" r="2.5" fill="#8B5CF6" fill-opacity="0.45"/><circle cx="226" cy="279" r="2.5" fill="#8B5CF6" fill-opacity="0.45"/><circle cx="56" cy="326" r="2.5" fill="#8B5CF6" fill-opacity="0.45"/><circle cx="225" cy="272" r="2.5" fill="#8B5CF6" fill-opacity="0.45"/><circle cx="130" cy="120" r="2.5" fill="#8B5CF6" fill-opacity="0.45"/><circle cx="140" cy="21" r="2.5" fill="#22D3EE" fill-opacity="0.45"/><circle cx="308" cy="71" r="2.5" fill="#22D3EE" fill-opacity="0.45"/><circle cx="278" cy="353" r="2.5" fill="#22D3EE" fill-opacity="0.45"/><circle cx="368" cy="147" r="2.5" fill="#22D3EE" fill-opacity="0.45"/><circle cx="288" cy="222" r="2.5" fill="#8B5CF6" fill-opacity="0.45"/><circle cx="372" cy="29" r="2.5" fill="#8B5CF6" fill-opacity="0.45"/><circle cx="0" cy="112" r="2.5" fill="#22D3EE" fill-opacity="0.45"/><circle cx="313" cy="133" r="2.5" fill="#8B5CF6" fill-opacity="0.45"/><circle cx="116" cy="334" r="2.5" fill="#22D3EE" fill-opacity="0.45"/><circle cx="72" cy="34" r="2.5" fill="#8B5CF6" fill-opacity="0.45"/><circle cx="88" cy="278" r="2.5" fill="#22D3EE" fill-opacity="0.45"/><circle cx="103" cy="320" r="2.5" fill="#22D3EE" fill-opacity="0.45"/>
<rect x="-444" width="444" height="356" fill="url(#shk3)"><animate attributeName="x" from="-444" to="444" dur="10s" repeatCount="indefinite"/></rect>
<text x="28" y="52" font-size="26" font-family="Segoe UI Emoji, Apple Color Emoji, Noto Color Emoji">🧠</text><text x="72" y="52" font-size="21" font-weight="700" fill="url(#ack3)">Deep Learning &amp; Computer Vision</text><rect x="28" y="66" width="60" height="3" rx="1.5" fill="url(#ack3)"/><text x="28" y="100" font-size="15" fill="#22D3EE">▸</text><text x="48" y="100" font-size="15" fill="#E6EDF3">Build, train and evaluate models with</text><text x="48" y="122" font-size="15" fill="#E6EDF3">TensorFlow/Keras and PyTorch.</text><text x="28" y="152" font-size="15" fill="#22D3EE">▸</text><text x="48" y="152" font-size="15" fill="#E6EDF3">CNNs, MLPs, ResNets with custom layers and</text><text x="48" y="174" font-size="15" fill="#E6EDF3">training loops, RNN/LSTM, attention and transfer</text><text x="48" y="196" font-size="15" fill="#E6EDF3">learning.</text><text x="28" y="226" font-size="15" fill="#22D3EE">▸</text><text x="48" y="226" font-size="15" fill="#E6EDF3">Object detection and classification; neural</text><text x="48" y="248" font-size="15" fill="#E6EDF3">networks for medical images (segmentation,</text><text x="48" y="270" font-size="15" fill="#E6EDF3">classification, quantification).</text><text x="28" y="300" font-size="15" fill="#22D3EE">▸</text><text x="48" y="300" font-size="15" fill="#E6EDF3">tf.data pipelines, data augmentation,</text><text x="48" y="322" font-size="15" fill="#E6EDF3">regularisation, callbacks and checkpointing.</text>
</g>
<rect x="1" y="1" width="442" height="354" rx="18" fill="none" stroke="url(#ack3)" stroke-opacity="0.5" stroke-width="1.5"/>
</svg>