<svg xmlns="http://www.w3.org/2000/svg" xmlns:xlink="http://www.w3.org/1999/xlink" width="444" height="378" viewBox="0 0 444 378" font-family="Segoe UI, Helvetica, Arial, sans-serif">
<defs>
<linearGradient id="bgk1" x1="0" y1="0" x2="1" y2="1"><stop offset="0" stop-color="#0B1026"/><stop offset="0.65" stop-color="#101B47"/><stop offset="1" stop-color="#0B1026"/></linearGradient>
<linearGradient id="ack1" x1="0" y1="0" x2="1" y2="0"><stop offset="0" stop-color="#22D3EE"/><stop offset="1" stop-color="#8B5CF6"/></linearGradient>
<linearGradient id="shk1" x1="0" y1="0" x2="1" y2="0"><stop offset="0" stop-color="#22D3EE" stop-opacity="0"/><stop offset="0.5" stop-color="#22D3EE" stop-opacity="0.09"/><stop offset="1" stop-color="#22D3EE" stop-opacity="0"/></linearGradient>
<clipPath id="cpk1"><rect width="444" height="378" rx="18"/></clipPath>
</defs>
<g clip-path="url(#cpk1)">
<rect width="444" height="378" fill="url(#bgk1)"/>
<line x1="376" y1="371" x2="399" y2="302" stroke="#22D3EE" stroke-opacity="0.11"/><line x1="376" y1="371" x2="350" y2="343" stroke="#22D3EE" stroke-opacity="0.11"/><line x1="73" y1="210" x2="30" y2="72" stroke="#22D3EE" stroke-opacity="0.11"/><line x1="73" y1="210" x2="56" y2="116" stroke="#22D3EE" stroke-opacity="0.11"/><line x1="73" y1="210" x2="74" y2="316" stroke="#22D3EE" stroke-opacity="0.11"/><line x1="73" y1="210" x2="130" y2="223" stroke="#22D3EE" stroke-opacity="0.11"/><line x1="73" y1="210" x2="151" y2="290" stroke="#22D3EE" stroke-opacity="0.11"/><line x1="73" y1="210" x2="35" y2="271" stroke="#22D3EE" stroke-opacity="0.11"/><line x1="73" y1="210" x2="14" y2="165" stroke="#22D3EE" stroke-opacity="0.11"/><line x1="273" y1="249" x2="399" y2="302" stroke="#22D3EE" stroke-opacity="0.11"/><line x1="273" y1="249" x2="130" y2="223" stroke="#22D3EE" stroke-opacity="0.11"/><line x1="273" y1="249" x2="350" y2="343" stroke="#22D3EE" stroke-opacity="0.11"/><line x1="273" y1="249" x2="151" y2="290" stroke="#22D3EE" stroke-opacity="0.11"/><line x1="273" y1="249" x2="268" y2="200" stroke="#22D3EE" stroke-opacity="0.11"/><line x1="273" y1="249" x2="334" y2="216" stroke="#22D3EE" stroke-opacity="0.11"/><line x1="273" y1="249" x2="232" y2="179" stroke="#22D3EE" stroke-opacity="0.11"/><line x1="30" y1="72" x2="56" y2="116" stroke="#22D3EE" stroke-opacity="0.11"/><line x1="30" y1="72" x2="172" y2="54" stroke="#22D3EE" stroke-opacity="0.11"/><line x1="30" y1="72" x2="14" y2="165" stroke="#22D3EE" stroke-opacity="0.11"/><line x1="399" y1="302" x2="350" y2="343" stroke="#22D3EE" stroke-opacity="0.11"/><line x1="399" y1="302" x2="334" y2="216" stroke="#22D3EE" stroke-opacity="0.11"/><line x1="56" y1="116" x2="130" y2="223" stroke="#22D3EE" stroke-opacity="0.11"/><line x1="56" y1="116" x2="172" y2="54" stroke="#22D3EE" stroke-opacity="0.11"/><line x1="56" y1="116" x2="14" y2="165" stroke="#22D3EE" stroke-opacity="0.11"/><line x1="74" y1="316" x2="130" y2="223" stroke="#22D3EE" stroke-opacity="0.11"/><line x1="74" y1="316" x2="151" y2="290" stroke="#22D3EE" stroke-opacity="0.11"/><line x1="74" y1="316" x2="35" y2="271" stroke="#22D3EE" stroke-opacity="0.11"/><line x1="130" y1="223" x2="151" y2="290" stroke="#22D3EE" stroke-opacity="0.11"/><line x1="130" y1="223" x2="268" y2="200" stroke="#22D3EE" stroke-opacity="0.11"/><line x1="130" y1="223" x2="35" y2="271" stroke="#22D3EE" stroke-opacity="0.11"/><line x1="130" y1="223" x2="232" y2="179" stroke="#22D3EE" stroke-opacity="0.11"/><line x1="130" y1="223" x2="14" y2="165" stroke="#22D3EE" stroke-opacity="0.11"/><line x1="328" y1="105" x2="213" y2="95" stroke="#22D3EE" stroke-opacity="0.11"/><line x1="328" y1="105" x2="301" y2="98" stroke="#22D3EE" stroke-opacity="0.11"/><line x1="328" y1="105" x2="268" y2="200" stroke="#22D3EE" stroke-opacity="0.11"/><line x1="328" y1="105" x2="334" y2="216" stroke="#22D3EE" stroke-opacity="0.11"/><line x1="328" y1="105" x2="232" y2="179" stroke="#22D3EE" stroke-opacity="0.11"/><line x1="213" y1="95" x2="301" y2="98" stroke="#22D3EE" stroke-opacity="0.11"/><line x1="213" y1="95" x2="172" y2="54" stroke="#22D3EE" stroke-opacity="0.11"/><line x1="213" y1="95" x2="268" y2="200" stroke="#22D3EE" stroke-opacity="0.11"/><line x1="213" y1="95" x2="232" y2="179" stroke="#22D3EE" stroke-opacity="0.11"/><line x1="301" y1="98" x2="172" y2="54" stroke="#22D3EE" stroke-opacity="0.11"/><line x1="301" y1="98" x2="268" y2="200" stroke="#22D3EE" stroke-opacity="0.11"/><line x1="301" y1="98" x2="334" y2="216" stroke="#22D3EE" stroke-opacity="0.11"/><line x1="301" y1="98" x2="232" y2="179" stroke="#22D3EE" stroke-opacity="0.11"/><line x1="350" y1="343" x2="334" y2="216" stroke="#22D3EE" stroke-opacity="0.11"/><line x1="151" y1="290" x2="268" y2="200" stroke="#22D3EE" stroke-opacity="0.11"/><line x1="151" y1="290" x2="35" y2="271" stroke="#22D3EE" stroke-opacity="0.11"/><line x1="151" y1="290" x2="232" y2="179" stroke="#22D3EE" stroke-opacity="0.11"/><line x1="172" y1="54" x2="232" y2="179" stroke="#22D3EE" stroke-opacity="0.11"/><line x1="268" y1="200" x2="334" y2="216" stroke="#22D3EE" stroke-opacity="0.11"/><line x1="268" y1="200" x2="232" y2="179" stroke="#22D3EE" stroke-opacity="0.11"/><line x1="35" y1="271" x2="14" y2="165" stroke="#22D3EE" stroke-opacity="0.11"/><line x1="334" y1="216" x2="232" y2="179" stroke="#22D3EE" stroke-opacity="0.11"/><circle cx="376" cy="371" r="2.5" fill="#8B5CF6" fill-opacity="0.45"/><circle cx="73" cy="210" r="2.5" fill="#22D3EE" fill-opacity="0.45"/><circle cx="273" cy="249" r="2.5" fill="#22D3EE" fill-opacity="0.45"/><circle cx="30" cy="72" r="2.5" fill="#8B5CF6" fill-opacity="0.45"/><circle cx="399" cy="302" r="2.5" fill="#22D3EE" fill-opacity="0.45"/><circle cx="56" cy="116" r="2.5" fill="#8B5CF6" fill-opacity="0.45"/><circle cx="74" cy="316" r="2.5" fill="#22D3EE" fill-opacity="0.45"/><circle cx="130" cy="223" r="2.5" fill="#8B5CF6" fill-opacity="0.45"/><circle cx="328" cy="105" r="2.5" fill="#22D3EE" fill-opacity="0.45"/><circle cx="213" cy="95" r="2.5" fill="#22D3EE" fill-opacity="0.45"/><circle cx="301" cy="98" r="2.5" fill="#22D3EE" fill-opacity="0.45"/><circle cx="350" cy="343" r="2.5" fill="#22D3EE" fill-opacity="0.45"/><circle cx="151" cy="290" r="2.5" fill="#8B5CF6" fill-opacity="0.45"/><circle cx="172" cy="54" r="2.5" fill="#8B5CF6" fill-opacity="0.45"/><circle cx="268" cy="200" r="2.5" fill="#8B5CF6" fill-opacity="0.45"/><circle cx="35" cy="271" r="2.5" fill="#22D3EE" fill-opacity="0.45"/><circle cx="334" cy="216" r="2.5" fill="#22D3EE" fill-opacity="0.45"/><circle cx="232" cy="179" r="2.5" fill="#22D3EE" fill-opacity="0.45"/><circle cx="14" cy="165" r="2.5" fill="#8B5CF6" fill-opacity="0.45"/>
<rect x="-444" width="444" height="378" fill="url(#shk1)"><animate attributeName="x" from="-444" to="444" dur="10s" repeatCount="indefinite"/></rect>
<text x="28" y="52" font-size="26" font-family="Segoe UI Emoji, Apple Color Emoji, Noto Color Emoji">💬</text><text x="72" y="52" font-size="21" font-weight="700" fill="url(#ack1)">LLMs, NLP &amp; Generative AI</text><rect x="28" y="66" width="60" height="3" rx="1.5" fill="url(#ack1)"/><text x="28" y="100" font-size="15" fill="#22D3EE">▸</text><text x="48" y="100" font-size="15" fill="#E6EDF3">Transformer language model trained from scratch in</text><text x="48" y="122" font-size="15" fill="#E6EDF3">PyTorch (positional encoding, self-attention,</text><text x="48" y="144" font-size="15" fill="#E6EDF3">feed-forward blocks).</text><text x="28" y="174" font-size="15" fill="#22D3EE">▸</text><text x="48" y="174" font-size="15" fill="#E6EDF3">English–German neural translation with RNN/LSTM,</text><text x="48" y="196" font-size="15" fill="#E6EDF3">embeddings and transfer learning.</text><text x="28" y="226" font-size="15" fill="#22D3EE">▸</text><text x="48" y="226" font-size="15" fill="#E6EDF3">Character-level RNN language model.</text><text x="28" y="256" font-size="15" fill="#22D3EE">▸</text><text x="48" y="256" font-size="15" fill="#E6EDF3">Advanced prompt engineering, trustworthy</text><text x="48" y="278" font-size="15" fill="#E6EDF3">generative AI, custom GPTs and fine-tuning.</text>
</g>
<rect x="1" y="1" width="442" height="376" rx="18" fill="none" stroke="url(#ack1)" stroke-opacity="0.5" stroke-width="1.5"/>
</svg>